PathFileType	3	(X/Y/Z)	C:\Users\koon_\Desktop\
DataRate	CameraRate	NumFrames	NumMarkers	Units	OrigDataRate	OrigDataStartFrame	OrigNumFrames
100.0	100.0	11	27	mm	100.0	1894	3786	
Frame#	Time	get:LFHD			get:RFHD			get:LBHD			get:RBHD			get:C7			get:T10			get:CLAV			get:STRN			get:RBAK			get:LSHO			get:LUPA			get:LELB			get:LFRA			get:LWRA			get:LWRB			get:LFIN			get:RSHO			get:RUPA			get:RELB			get:RFRA			get:RWRA			get:RWRB			get:RFIN			get:LASI			get:RASI			get:LPSI			get:RPSI			
		X1	Y1	Z1	X2	Y2	Z2	X3	Y3	Z3	X4	Y4	Z4	X5	Y5	Z5	X6	Y6	Z6	X7	Y7	Z7	X8	Y8	Z8	X9	Y9	Z9	X10	Y10	Z10	X11	Y11	Z11	X12	Y12	Z12	X13	Y13	Z13	X14	Y14	Z14	X15	Y15	Z15	X16	Y16	Z16	X17	Y17	Z17	X18	Y18	Z18	X19	Y19	Z19	X20	Y20	Z20	X21	Y21	Z21	X22	Y22	Z22	X23	Y23	Z23	X24	Y24	Z24	X25	Y25	Z25	X26	Y26	Z26	X27	Y27	Z27	
1894	18.93	77.759026	1581.3472	-49.10442	-78.008553	1563.3593	-62.18092	84.105865	1569.7988	-173.30016	-39.855595	1563.8761	-203.36002	30.16923	1383.0388	-205.38985	40.065033	1125.7875	-246.08679	11.08296	1299.0593	-27.624432	22.015463	1111.7172	15.206924	-48.566723	1311.8718	-246.13443	181.54939	1362.1379	-99.726891	240.88368	1215.8407	-100.91196	263.67188	1041.0079	-164.88464	251.32042	932.08533	-107.0686	235.70372	836.90741	-107.96847	287.08832	839.14197	-153.67427	295.07013	760.26898	-112.63297	-131.15164	1358.9088	-140.11841	-211.3824	1143.506	-134.75648	-222.15042	1041.7036	-194.99663	-230.71017	974.54614	-112.98808	-236.27237	821.39032	-87.720482	-262.70508	825.03638	-157.49428	-287.03986	756.9856	-100.7695	153.55984	924.87769	-46.785118	-123.17171	914.62048	-69.538872	84.037491	964.26782	-251.39255	-24.889	953.86908	-260.49158
1895	18.94	78.055717	1581.1439	-48.27737	-77.754158	1563.4587	-61.441723	84.519089	1569.5228	-172.46576	-39.361923	1563.8516	-202.64281	30.335928	1383.1595	-204.8432	40.385395	1125.8732	-245.91713	11.068682	1299.0785	-27.335981	21.851141	1111.6808	15.429384	-48.324348	1312.098	-245.9894	182.09465	1361.9956	-99.497704	241.91266	1215.598	-103.62318	262.26263	1040.9508	-169.46402	251.18915	931.9278	-111.53675	234.85789	836.83215	-111.79383	284.75595	838.59216	-159.23099	292.53479	758.72388	-118.80827	-131.14754	1358.7729	-139.96741	-211.60054	1143.3656	-135.63304	-222.01346	1041.7251	-196.18134	-231.38478	974.4082	-114.47929	-237.20793	821.12781	-89.686104	-263.21655	825.008	-159.50488	-288.03021	756.88928	-103.21906	153.14099	924.75958	-46.271286	-123.43443	914.68732	-70.038017	84.422806	964.34033	-251.07362	-24.505089	953.83594	-260.39142
1896	18.95	78.252449	1580.9558	-47.370754	-77.395813	1563.3049	-61.726944	84.888168	1569.2765	-171.55975	-38.951134	1563.7711	-201.86932	30.407211	1383.205	-204.35046	40.535908	1125.9088	-245.85391	11.114339	1299.1079	-27.0725	21.767664	1111.6816	15.624275	-48.189091	1312.1941	-245.66876	182.64133	1361.9241	-99.649017	242.82451	1215.4484	-106.16877	260.99921	1041.0713	-173.70139	251.4297	931.92236	-115.41373	234.46422	836.80066	-115.31886	283.01175	838.27588	-164.16643	290.35864	757.30963	-124.42183	-131.16446	1358.6298	-139.74727	-211.86406	1143.192	-136.34909	-221.94765	1041.7209	-197.34254	-232.05119	974.28894	-115.89852	-238.11215	820.89539	-91.604355	-263.67926	825.01801	-161.61462	-288.91718	756.76398	-105.48829	152.78139	924.72101	-45.730072	-123.75765	914.72321	-70.463188	84.780678	964.36975	-250.75528	-24.166067	953.82635	-260.37961
1897	18.96	78.49942	1580.7676	-46.471828	-77.354248	1563.4639	-60.086308	85.24192	1569.1079	-170.64113	-38.583881	1563.7327	-201.15968	30.399586	1383.2646	-204.01651	40.588757	1125.9335	-245.91911	11.184029	1299.132	-26.823254	21.790169	1111.6962	15.787512	-48.187481	1312.3777	-245.57399	183.10187	1361.9666	-99.974892	243.73453	1215.4332	-108.56445	259.81906	1041.2076	-177.37474	251.94058	932.02985	-118.87769	234.42641	836.80652	-118.3243	281.80511	838.18628	-168.53427	288.74271	756.2373	-129.41011	-131.2195	1358.4769	-139.44543	-212.18744	1142.9694	-137.05438	-221.90051	1041.7913	-198.57883	-232.73563	974.13715	-117.30483	-239.02365	820.67401	-93.406487	-264.16986	825.02875	-163.57819	-289.75583	756.63342	-107.79008	152.44739	924.6051	-45.371674	-124.02947	914.76123	-70.976555	85.146423	964.38452	-250.5728	-23.803127	953.85577	-260.48547
1898	18.97	78.677002	1580.5925	-45.607029	-76.980133	1563.2368	-60.242226	85.56295	1569.0223	-169.80663	-38.262569	1563.7194	-200.30637	30.246901	1383.2338	-203.78311	40.489655	1125.8856	-246.10136	11.295591	1299.1895	-26.691635	21.864872	1111.7231	15.923928	-48.355911	1312.3998	-245.17384	183.47887	1362.1053	-100.46268	244.39984	1215.4918	-110.69823	258.74078	1041.4214	-180.48642	252.5683	932.21869	-121.77925	234.60652	836.86078	-121.05576	281.00208	838.30481	-172.32581	287.75873	755.56226	-133.782	-131.30151	1358.3712	-139.15326	-212.52008	1142.7521	-137.59758	-221.642	1041.8872	-200.03806	-233.37834	974.00671	-118.65006	-239.82387	820.51624	-95.201927	-264.54153	825.04211	-165.54855	-290.36523	756.53949	-110.87283	152.13533	924.53442	-44.988358	-124.27649	914.75665	-71.383247	85.481102	964.38019	-250.41548	-23.404991	953.89844	-260.70621
1899	18.98	78.914246	1580.3625	-44.733864	-76.994659	1563.2712	-58.792564	85.829369	1569.007	-168.95172	-37.983772	1563.8395	-199.66167	30.020086	1383.226	-203.619	40.292652	1125.8357	-246.3931	11.447684	1299.2992	-26.626608	22.05365	1111.7585	16.017941	-48.612953	1312.5382	-245.00177	183.73398	1362.3759	-101.0489	244.78679	1215.6366	-112.5697	257.91965	1041.7128	-182.82216	253.26392	932.42804	-124.1783	235.2395	836.96832	-123.24966	280.6153	838.61884	-175.54874	287.54099	755.32178	-137.49068	-131.42049	1358.3074	-138.82433	-212.87297	1142.5775	-137.99435	-221.55785	1041.9623	-200.99496	-233.96721	973.95404	-119.87908	-240.56558	820.32782	-96.945839	-264.96039	825.1449	-167.45801	-291.15817	756.40515	-112.38848	151.82372	924.46674	-44.691174	-124.4654	914.76062	-71.769577	85.766907	964.31946	-250.31496	-23.156813	953.77631	-260.68704
1900	18.99	79.044235	1580.1543	-43.881145	-76.784943	1563.1354	-58.105244	86.130302	1569.0789	-168.0732	-37.707893	1564.0389	-198.88593	29.771406	1383.2146	-203.47826	39.992283	1125.7765	-246.72592	11.652633	1299.4126	-26.536186	22.268854	1111.8263	16.081333	-48.89349	1312.7168	-244.90895	183.93329	1362.649	-101.68909	244.97266	1215.8673	-113.89314	257.30823	1042.1309	-184.46657	253.98933	932.70251	-126.04443	235.95338	837.09814	-125.05789	280.59766	839.0896	-178.09224	287.95673	755.37378	-140.67491	-131.50584	1358.243	-138.43811	-213.17062	1142.4772	-138.21393	-221.62869	1042.1178	-201.76553	-234.4295	973.84009	-120.97164	-241.23161	820.18738	-98.599731	-265.29398	825.23639	-169.15163	-291.77054	756.31561	-114.47798	151.5842	924.43127	-44.413628	-124.62325	914.80157	-72.106102	86.048019	964.29413	-250.31674	-22.905851	953.76215	-260.92712
1901	19	79.211266	1579.9403	-43.03455	-76.520905	1562.905	-58.190926	86.337723	1569.2429	-167.29726	-37.471714	1564.316	-198.21257	29.469309	1383.2305	-203.40649	39.69141	1125.7383	-247.11134	11.799376	1299.519	-26.522575	22.498859	1111.8871	16.07844	-49.227272	1312.8951	-244.76883	184.01274	1362.953	-102.29044	244.96855	1216.1208	-114.75903	256.93079	1042.5936	-185.35478	254.68964	932.97351	-127.31959	237.02177	837.25439	-126.40651	280.90659	839.63965	-180.09584	289.14246	755.74066	-143.2283	-131.62753	1358.2312	-138.0452	-213.41884	1142.4336	-138.29723	-221.71458	1042.3463	-202.39552	-234.8022	973.79797	-121.90469	-241.76007	820.06195	-100.11443	-265.59698	825.40277	-170.82883	-292.30423	756.26392	-116.52127	151.43784	924.45917	-44.189972	-124.77301	914.82361	-72.497978	86.281013	964.24048	-250.30043	-22.713892	953.58197	-260.85449
1902	19.01	79.341187	1579.6744	-42.294598	-76.388397	1562.7898	-57.653519	86.478333	1569.4454	-166.56308	-37.279526	1564.6693	-197.45316	29.145557	1383.2933	-203.37608	39.342171	1125.7605	-247.56003	11.9672	1299.6289	-26.454206	22.787333	1111.9768	16.010052	-49.585045	1313.1504	-244.63506	184.06496	1363.2877	-102.74238	244.97998	1216.3942	-115.17976	256.89001	1043.0599	-185.66945	255.35783	933.26672	-127.98913	238.25209	837.46704	-127.15743	281.53851	840.31085	-181.3701	290.82156	756.36139	-145.18404	-131.73958	1358.2659	-137.63205	-213.66104	1142.4365	-138.24982	-222.02841	1042.6174	-202.74782	-235.09129	973.77405	-122.6393	-242.13205	819.90961	-101.68501	-265.96146	825.57574	-172.24681	-292.6785	756.29553	-119.08971	151.30191	924.46698	-44.120079	-124.80611	914.87946	-72.782028	86.448441	964.16382	-250.29689	-22.508972	953.60083	-261.11197
1903	19.02	79.403419	1579.4015	-41.50518	-76.239426	1562.7319	-56.936195	86.652283	1569.6591	-165.84276	-37.082115	1565.0752	-196.84273	28.912304	1383.3917	-203.31171	38.992348	1125.8645	-247.96359	12.097428	1299.696	-26.446947	23.039248	1112.0464	15.927285	-49.890747	1313.3417	-244.38203	184.02821	1363.5703	-103.00555	244.98851	1216.6639	-115.20977	257.15576	1043.4526	-185.44366	256.06793	933.57062	-128.12582	239.65685	837.6319	-127.44888	282.40463	840.99377	-182.06743	292.95081	757.11603	-146.44049	-131.82408	1358.3208	-137.29201	-213.82916	1142.5446	-138.16237	-222.52904	1042.9878	-202.79288	-235.27263	973.72455	-123.24969	-242.42094	819.802	-103.07886	-266.26093	825.80963	-173.63695	-293.0697	756.27319	-120.02622	151.20502	924.5191	-44.098961	-124.86527	914.95093	-73.144104	86.603447	964.09717	-250.36565	-22.351151	953.54364	-261.33276
1904	19.03	79.50013	1579.1029	-40.852512	-76.355461	1562.8258	-55.526894	86.753357	1569.8215	-165.21475	-36.988239	1565.5081	-196.34515	28.696129	1383.5751	-203.2753	38.737099	1125.9706	-248.23596	12.175032	1299.7581	-26.371908	23.220573	1112.0828	15.827196	-50.216049	1313.5919	-244.29681	183.86952	1363.7908	-103.00655	244.9801	1216.8809	-114.85161	257.72833	1043.7772	-184.8815	256.77112	933.87317	-127.72843	241.07437	837.82068	-127.25201	283.57407	841.60168	-182.07539	295.35339	758.03436	-146.96141	-131.90382	1358.3652	-136.95142	-213.98875	1142.6472	-138.02682	-222.88518	1043.287	-202.88545	-235.40601	973.67737	-123.80821	-242.55428	819.71075	-104.36893	-266.5329	825.99933	-174.84256	-293.32852	756.28857	-121.50598	151.16214	924.58112	-44.12159	-124.87771	915.04089	-73.449837	86.688522	964.06421	-250.45493	-22.225702	953.45605	-261.5596
